<?xml version="1.0" encoding="UTF-8"?>
<svg version="1.1" xmlns="http://www.w3.org/2000/svg" width="95" height="30">
<path d="M0 0 C3.7459567 2.26775826 7.02171695 5.04343389 9 9 C9.69116213 14.10517482 10.18851602 18.98076728 7.5078125 23.53515625 C2.1014129 29.71550102 2.1014129 29.71550102 -2.5390625 30.34375 C-8.40325365 30.64067107 -12.14203975 30.60124653 -16.6875 26.625 C-20.32085738 22.96907519 -21.16631348 20.8411948 -21.25 15.6875 C-21.18846782 9.79579337 -19.88109376 7.11623048 -16 2.75 C-11.61795771 -1.084287 -5.50138428 -0.94309445 0 0 Z " fill="#7B397A" transform="translate(21,0)"/>
<path d="M0 0 C13.86 0 27.72 0 42 0 C42.495 1.485 42.495 1.485 43 3 C43.33 2.01 43.66 1.02 44 0 C45.875 0.3125 45.875 0.3125 48 1 C48.66 1.99 49.32 2.98 50 4 C50.33 2.68 50.66 1.36 51 0 C54.96 0 58.92 0 63 0 C63 2.31 63 4.62 63 7 C48.48 7 33.96 7 19 7 C19 5.68 19 4.36 19 3 C18.34 3 17.68 3 17 3 C17.33 4.32 17.66 5.64 18 7 C16.35 7 14.7 7 13 7 C13.33 5.68 13.66 4.36 14 3 C13.01 3 12.02 3 11 3 C10.34 4.32 9.68 5.64 9 7 C6.36 7 3.72 7 1 7 C0.67 4.69 0.34 2.38 0 0 Z M33 1 C33 2.32 33 3.64 33 5 C33.66 5 34.32 5 35 5 C34.67 3.68 34.34 2.36 34 1 C33.67 1 33.34 1 33 1 Z M58 1 C57.67 1.99 57.34 2.98 57 4 C57.99 4.495 57.99 4.495 59 5 C58.67 3.68 58.34 2.36 58 1 Z M4 2 C4 2.99 4 3.98 4 5 C4.66 5 5.32 5 6 5 C6 4.01 6 3.02 6 2 C5.34 2 4.68 2 4 2 Z M24 2 C24 2.66 24 3.32 24 4 C24.66 4 25.32 4 26 4 C26 3.34 26 2.68 26 2 C25.34 2 24.68 2 24 2 Z " fill="#020202" transform="translate(31,6)"/>
<path d="M0 0 C4.95 0 9.9 0 15 0 C15 1.32 15 2.64 15 4 C15.66 4 16.32 4 17 4 C17 2.68 17 1.36 17 0 C21.95 0 26.9 0 32 0 C31.67 1.65 31.34 3.3 31 5 C32.99983534 4.20882096 32.99983534 4.20882096 35 3 C35.33 2.01 35.66 1.02 36 0 C37.8125 0.125 37.8125 0.125 40 1 C40.99 2.98 41.98 4.96 43 7 C28.81 7 14.62 7 0 7 C0 4.69 0 2.38 0 0 Z M6 2 C7 5 7 5 7 5 Z M10 2 C11 6 11 6 11 6 Z M27 2 C28 5 28 5 28 5 Z " fill="#020202" transform="translate(42,17)"/>
<path d="M0 0 C1.45823212 -0.0270043 2.91660675 -0.04639787 4.375 -0.0625 C5.18710938 -0.07410156 5.99921875 -0.08570313 6.8359375 -0.09765625 C9 0 9 0 11 1 C12.28597399 3.50426513 13.0415952 5.29288157 12.875 8.125 C11.65049974 10.74892912 10.5717433 11.6464509 8 13 C3.98605027 13.50174372 1.88847216 13.59971871 -1.5 11.3125 C-3 9 -3 9 -2.875 6.5 C-2.07301775 4.20862215 -1.10527881 2.15575041 0 0 Z " fill="#C5C9C5" transform="translate(10,12)"/>
<path d="M0 0 C3.68285005 2.45523336 3.94619813 3.7847925 5 8 C5.125 11.375 5.125 11.375 5 14 C4.01 14 3.02 14 2 14 C1.67 12.35 1.34 10.7 1 9 C-2.63 8.67 -6.26 8.34 -10 8 C-10.66 9.98 -11.32 11.96 -12 14 C-12.99 14 -13.98 14 -15 14 C-14.56680729 8.58509109 -13.43406135 5.24207578 -10 1 C-6.47005387 -0.17664871 -3.70544587 -0.19850603 0 0 Z " fill="#BB7994" transform="translate(20,4)"/>
<path d="M0 0 C9.22268877 -1.06806874 9.22268877 -1.06806874 13.4765625 1.48828125 C19.7942272 7.03633952 19.7942272 7.03633952 20.2734375 11.609375 C20.58128774 21.12905169 20.58128774 21.12905169 17.5 24.75 C16.675 25.4925 15.85 26.235 15 27 C13.68 26.34 12.36 25.68 11 25 C11.66 24.54625 12.32 24.0925 13 23.625 C15.65709448 20.1375635 15.50266957 17.69898025 15.33203125 13.4140625 C14.90988387 10.3448027 13.98831826 8.37068715 12 6 C11.34 5.67 10.68 5.34 10 5 C10 4.34 10 3.68 10 3 C8.68 3 7.36 3 6 3 C6 2.34 6 1.68 6 1 C4.02 1 2.04 1 0 1 C0 0.67 0 0.34 0 0 Z " fill="#928685" transform="translate(10,0)"/>
<path d="M0 0 C0.99 0.66 1.98 1.32 3 2 C3.64995002 5.3610028 3.51739825 8.62329566 3 12 C1 14.625 1 14.625 -1 16 C-0.34 16.33 0.32 16.66 1 17 C0 20 0 20 -2 21 C-3.95339423 21.17369832 -5.91442704 21.26696102 -7.875 21.3125 C-8.92429687 21.34988281 -9.97359375 21.38726563 -11.0546875 21.42578125 C-14.63896444 20.90762981 -15.75027959 19.75509239 -18 17 C-17.01 15.515 -17.01 15.515 -16 14 C-16 13.01 -16 12.02 -16 11 C-15.2265625 11.99 -15.2265625 11.99 -14.4375 13 C-12.06697302 15.30771734 -12.06697302 15.30771734 -8.5 15.4375 C-4.90079975 14.98759997 -3.48229735 14.57777032 -1 12 C-0.67 11.01 -0.34 10.02 0 9 C0.66 9 1.32 9 2 9 C1.34 6.03 0.68 3.06 0 0 Z " fill="#B66080" transform="translate(23,9)"/>
<path d="M0 0 C0.7425 0.2475 1.485 0.495 2.25 0.75 C0.96034824 2.12562854 -0.37689293 3.45766393 -1.75 4.75 C-2.41 4.75 -3.07 4.75 -3.75 4.75 C-3.75 5.74 -3.75 6.73 -3.75 7.75 C-4.41 7.75 -5.07 7.75 -5.75 7.75 C-5.75 9.07 -5.75 10.39 -5.75 11.75 C-6.41 11.75 -7.07 11.75 -7.75 11.75 C-8.08 12.41 -8.41 13.07 -8.75 13.75 C-8.09 14.08 -7.43 14.41 -6.75 14.75 C-7.41 14.75 -8.07 14.75 -8.75 14.75 C-8.75 15.41 -8.75 16.07 -8.75 16.75 C-7.76 16.75 -6.77 16.75 -5.75 16.75 C-5.75 17.41 -5.75 18.07 -5.75 18.75 C-6.41 18.75 -7.07 18.75 -7.75 18.75 C-7.42 20.07 -7.09 21.39 -6.75 22.75 C-8.99688791 20.97864392 -9.69459771 20.10088119 -10.1484375 17.2265625 C-10.06983006 7.66265685 -10.06983006 7.66265685 -6.75 3.75 C-6.13125 2.96625 -5.5125 2.1825 -4.875 1.375 C-2.75 -0.25 -2.75 -0.25 0 0 Z " fill="#918FA5" transform="translate(9.75,1.25)"/>
<path d="M0 0 C1.26972656 0.00257812 2.53945312 0.00515625 3.84765625 0.0078125 C5.11480469 0.00523438 6.38195313 0.00265625 7.6875 0 C10.91015625 0.1328125 10.91015625 0.1328125 12.91015625 1.1328125 C11.91015625 4.1328125 11.91015625 4.1328125 9.91015625 5.1328125 C7.8696062 5.20346867 5.82681368 5.21703226 3.78515625 5.1953125 C2.68945312 5.18628906 1.59375 5.17726563 0.46484375 5.16796875 C-0.37820313 5.15636719 -1.22125 5.14476562 -2.08984375 5.1328125 C-2.74984375 3.8128125 -3.40984375 2.4928125 -4.08984375 1.1328125 C-3.08984375 0.1328125 -3.08984375 0.1328125 0 0 Z " fill="#2F3289" transform="translate(11.08984375,24.8671875)"/>
<path d="M0 0 C0.99 0.33 1.98 0.66 3 1 C4.63072905 5.89218714 4.66105826 10.90141237 4 16 C1.5 18.75 1.5 18.75 -1 20 C-1.99 19.01 -2.98 18.02 -4 17 C-3.01 16.67 -2.02 16.34 -1 16 C0.50156874 12.99686252 0.09281204 10.20932478 0.0625 6.875 C0.05347656 5.59367188 0.04445313 4.31234375 0.03515625 2.9921875 C0.02355469 2.00476563 0.01195312 1.01734375 0 0 Z " fill="#8787AD" transform="translate(25,7)"/>
<path d="M0 0 C1.45823212 -0.0270043 2.91660675 -0.04639787 4.375 -0.0625 C5.18710938 -0.07410156 5.99921875 -0.08570313 6.8359375 -0.09765625 C9 0 9 0 11 1 C11.33 2.32 11.66 3.64 12 5 C7.38 5 2.76 5 -2 5 C-1.34 3.35 -0.68 1.7 0 0 Z " fill="#E2E4E5" transform="translate(10,12)"/>
<path d="M0 0 C0.495 0.165 0.99 0.33 1.5 0.5 C6.25659235 1.45131847 11.35968313 1.54677229 16 0 C13.23215917 3.35495858 11.79206173 4.8610418 7.4375 5.625 C4 5 4 5 1.5625 2.5 C1.046875 1.675 0.53125 0.85 0 0 Z " fill="#D4CFDB" transform="translate(7,20)"/>
<path d="M0 0 C-2 3 -2 3 -3.875 3.3984375 C-4.926875 3.38683594 -4.926875 3.38683594 -6 3.375 C-6.70125 3.38273437 -7.4025 3.39046875 -8.125 3.3984375 C-10 3 -10 3 -12 0 C-7.74433453 -1.16063604 -4.3164922 -0.76173392 0 0 Z " fill="#92277F" transform="translate(21,19)"/>
<path d="M0 0 C1.134375 0.020625 2.26875 0.04125 3.4375 0.0625 C3.4375 0.7225 3.4375 1.3825 3.4375 2.0625 C4.7575 2.3925 6.0775 2.7225 7.4375 3.0625 C6.42429687 3.24425781 6.42429687 3.24425781 5.390625 3.4296875 C4.05257813 3.68105469 4.05257813 3.68105469 2.6875 3.9375 C1.80578125 4.09992187 0.9240625 4.26234375 0.015625 4.4296875 C-2.43197744 5.03046264 -4.36849857 5.84247117 -6.5625 7.0625 C-6.5625 6.4025 -6.5625 5.7425 -6.5625 5.0625 C-4.5625 3.4375 -4.5625 3.4375 -2.5625 2.0625 C-3.2225 1.7325 -3.8825 1.4025 -4.5625 1.0625 C-3.5625 0.0625 -3.5625 0.0625 0 0 Z " fill="#665E8F" transform="translate(12.5625,0.9375)"/>
<path d="M0 0 C0.99 0.33 1.98 0.66 3 1 C2.34 2.32 1.68 3.64 1 5 C1.66 5.33 2.32 5.66 3 6 C2.34 6 1.68 6 1 6 C1 6.66 1 7.32 1 8 C1.99 8 2.98 8 4 8 C4 8.66 4 9.32 4 10 C3.34 10 2.68 10 2 10 C2.33 11.32 2.66 12.64 3 14 C1.51171875 12.85546875 1.51171875 12.85546875 0 11 C-0.29296875 8.30078125 -0.29296875 8.30078125 -0.1875 5.3125 C-0.16042969 4.31863281 -0.13335938 3.32476562 -0.10546875 2.30078125 C-0.07066406 1.54152344 -0.03585937 0.78226563 0 0 Z " fill="#B1A797" transform="translate(0,10)"/>
<path d="M0 0 C0.99 0.33 1.98 0.66 3 1 C3.33 3.31 3.66 5.62 4 8 C3.34 8 2.68 8 2 8 C1.67 9.32 1.34 10.64 1 12 C0.67 8.04 0.34 4.08 0 0 Z " fill="#757AB3" transform="translate(25,7)"/>
<path d="M0 0 C0.66 0 1.32 0 2 0 C2 0.66 2 1.32 2 2 C2.66 2 3.32 2 4 2 C3.67 3.32 3.34 4.64 3 6 C1.35 5.67 -0.3 5.34 -2 5 C-1.34 3.35 -0.68 1.7 0 0 Z " fill="#E9B262" transform="translate(14,6)"/>
<path d="M0 0 C0.33 0.66 0.66 1.32 1 2 C1.61875 1.814375 2.2375 1.62875 2.875 1.4375 C5 1 5 1 7 2 C7 1.34 7 0.68 7 0 C8.65 0.33 10.3 0.66 12 1 C10 3 10 3 7.1796875 3.1953125 C6.08914062 3.17210937 4.99859375 3.14890625 3.875 3.125 C2.77929688 3.10695313 1.68359375 3.08890625 0.5546875 3.0703125 C-0.28835938 3.04710937 -1.13140625 3.02390625 -2 3 C-1.34 2.67 -0.68 2.34 0 2 C0 1.34 0 0.68 0 0 Z " fill="#A3975C" transform="translate(11,27)"/>
<path d="M0 0 C1.485 0.99 1.485 0.99 3 2 C3.3984375 4.27734375 3.3984375 4.27734375 3.375 6.9375 C3.38273437 7.81277344 3.39046875 8.68804687 3.3984375 9.58984375 C2.93645238 12.38440081 2.17350069 13.25774945 0 15 C0 13.02 0 11.04 0 9 C0.66 9 1.32 9 2 9 C1.34 6.03 0.68 3.06 0 0 Z " fill="#8E376D" transform="translate(23,9)"/>
<path d="M0 0 C0.99 1.32 1.98 2.64 3 4 C2.01 4 1.02 4 0 4 C-0.66 5.98 -1.32 7.96 -2 10 C-2.33 10 -2.66 10 -3 10 C-3.36923077 4.58461538 -3.36923077 4.58461538 -1.5 1.625 C-1.005 1.08875 -0.51 0.5525 0 0 Z " fill="#974C74" transform="translate(10,8)"/>
<path d="M0 0 C0.99 0 1.98 0 3 0 C3 0.66 3 1.32 3 2 C3.99 2.33 4.98 2.66 6 3 C5.01 3.495 5.01 3.495 4 4 C4 4.66 4 5.32 4 6 C3.01 5.67 2.02 5.34 1 5 C0.67 3.35 0.34 1.7 0 0 Z " fill="#696A9D" transform="translate(2,20)"/>
<path d="M0 0 C3.41021743 0.78697325 6.68885166 1.87119943 10 3 C10 3.33 10 3.66 10 4 C6.6875 4.25 6.6875 4.25 3 4 C1.0625 2 1.0625 2 0 0 Z " fill="#D9ECE1" transform="translate(7,20)"/>
<path d="M0 0 C1.32 0 2.64 0 4 0 C3.67 1.32 3.34 2.64 3 4 C1.35 4 -0.3 4 -2 4 C-1.34 2.68 -0.68 1.36 0 0 Z " fill="#FCFDFC" transform="translate(10,13)"/>
<path d="M0 0 C1.32 0 2.64 0 4 0 C3.49396008 2.16874252 3.00016187 3.99967627 2 6 C1.34 5.67 0.68 5.34 0 5 C0.33 4.01 0.66 3.02 1 2 C0.34 1.67 -0.32 1.34 -1 1 C-0.67 0.67 -0.34 0.34 0 0 Z " fill="#C66881" transform="translate(10,5)"/>
</svg>
